<svg width="290" height="290" viewBox="0 0 290 290" fill="none" xmlns="http://www.w3.org/2000/svg">
<circle cx="262.5" cy="132.5" r="21" stroke="white" stroke-width="5"/>
<circle cx="111.5" cy="26.5" r="20" stroke="white" stroke-width="5"/>
<circle cx="216.5" cy="56.5" r="15" stroke="white" stroke-width="5"/>
<circle cx="200.5" cy="245.5" r="19" stroke="white" stroke-width="5"/>
<circle cx="99" cy="265" r="17.5" stroke="white" stroke-width="5"/>
<circle cx="31.5" cy="196.5" r="25" stroke="white" stroke-width="5"/>
<circle cx="19" cy="74" r="12.5" stroke="white" stroke-width="5"/>
<circle cx="66.5" cy="134.5" r="10" stroke="white" stroke-width="5"/>
<line x1="118.413" y1="43.347" x2="141.413" y2="128.347" stroke="white" stroke-width="5"/>
<line x1="31.1541" y1="81.7823" x2="129.154" y2="132.782" stroke="white" stroke-width="5"/>
<line x1="158.087" y1="129.309" x2="209.635" y2="68.009" stroke="#FFFDFD" stroke-width="5"/>
<line x1="74.2812" y1="135.516" x2="127.281" y2="141.516" stroke="white" stroke-width="5"/>
<line x1="55.0497" y1="183.688" x2="128.05" y2="153.688" stroke="white" stroke-width="5"/>
<line x1="105.648" y1="248.152" x2="136.648" y2="162.152" stroke="white" stroke-width="5"/>
<line x1="151.138" y1="161.704" x2="191.138" y2="227.704" stroke="white" stroke-width="5"/>
<line x1="162.731" y1="139.505" x2="241.492" y2="134.511" stroke="white" stroke-width="5"/>
<circle cx="145" cy="144" r="17.5" stroke="white" stroke-width="5"/>
<line x1="143.754" y1="128.657" x2="129.754" y2="144.741" stroke="white" stroke-width="2"/>
<line x1="150.142" y1="129.646" x2="130.763" y2="152.548" stroke="white" stroke-width="2"/>
<line x1="159.143" y1="137.646" x2="139.765" y2="160.548" stroke="white" stroke-width="2"/>
<line x1="163.912" y1="140.646" x2="147.763" y2="159.731" stroke="white" stroke-width="2"/>
<line x1="156.725" y1="130.646" x2="134.763" y2="156.601" stroke="white" stroke-width="2"/>
</svg>
