<svg width="290" height="290" viewBox="0 0 290 290" fill="none" xmlns="http://www.w3.org/2000/svg">
<path d="M213.101 189.799C214.137 190.833 215.813 190.833 216.849 189.799L224.799 181.849C225.832 180.814 225.832 179.137 224.799 178.102L170.473 123.777C169.439 122.741 167.761 122.741 166.726 123.777L158.777 131.727C157.741 132.762 157.741 134.439 158.777 135.473L213.101 189.799ZM219.177 179.975L214.975 184.178L206.797 176L211 171.798L219.177 179.975ZM168.6 129.397L207.252 168.05L203.05 172.253L164.398 133.601L168.6 129.397Z" fill="white" stroke="white" stroke-width="0.547594"/>
<path d="M280.229 197.221C251.854 193.675 223.146 193.675 194.772 197.221C193.445 197.387 192.45 198.515 192.45 199.85V210.45C192.45 211.21 192.776 211.934 193.346 212.437C193.916 212.938 194.674 213.174 195.428 213.079C200.511 212.446 205.609 211.965 210.714 211.56L205.701 279.153C205.646 279.89 205.901 280.617 206.402 281.157C206.906 281.697 207.611 282.004 208.35 282H266.65C267.388 282.004 268.094 281.697 268.595 281.157C269.099 280.617 269.354 279.89 269.299 279.153L264.286 211.56C269.39 211.965 274.489 212.446 279.572 213.079C279.68 213.092 279.79 213.101 279.899 213.101C281.363 213.101 282.55 211.914 282.55 210.45V199.85C282.55 198.515 281.555 197.387 280.229 197.221ZM211.204 276.701L214.932 226.35H260.068L263.795 276.701H211.204ZM215.324 221.051L216.059 211.148C230.338 210.244 244.661 210.244 258.941 211.148L259.676 221.051H215.324ZM277.249 207.462C250.838 204.397 224.16 204.397 197.75 207.462V202.198C224.158 199.087 250.84 199.087 277.249 202.198V207.462Z" fill="white" stroke="white" stroke-width="0.547594"/>
<path d="M240.113 151.716C239.898 150.441 238.793 149.509 237.5 149.509C236.207 149.509 235.103 150.441 234.887 151.716C234.165 156.034 230.781 159.417 226.462 160.138C225.188 160.352 224.253 161.458 224.253 162.75C224.253 164.044 225.188 165.148 226.462 165.363C230.781 166.084 234.165 169.467 234.887 173.785C235.103 175.06 236.207 175.992 237.5 175.992C238.793 175.992 239.898 175.06 240.113 173.785C240.834 169.467 244.218 166.084 248.537 165.363C249.811 165.148 250.744 164.044 250.744 162.75C250.744 161.458 249.811 160.352 248.537 160.138C244.218 159.417 240.834 156.034 240.113 151.716ZM237.5 166.533C236.466 165.064 235.186 163.784 233.716 162.75C235.186 161.717 236.466 160.437 237.5 158.965C238.532 160.437 239.814 161.717 241.283 162.75C239.814 163.784 238.532 165.064 237.5 166.533Z" fill="white" stroke="white" stroke-width="0.547594"/>
<path d="M250.313 144.163C254.631 144.884 258.015 148.267 258.737 152.586C258.953 153.86 260.057 154.793 261.349 154.793C262.642 154.793 263.748 153.86 263.962 152.586C264.684 148.267 268.068 144.884 272.387 144.163C273.661 143.949 274.594 142.844 274.594 141.551C274.594 140.258 273.661 139.153 272.387 138.937C268.068 138.217 264.684 134.834 263.962 130.516C263.748 129.24 262.642 128.308 261.349 128.308C260.057 128.308 258.953 129.24 258.737 130.516C258.015 134.834 254.631 138.217 250.313 138.937C249.037 139.153 248.103 140.258 248.103 141.551C248.103 142.844 249.037 143.949 250.313 144.163ZM261.349 137.766C262.382 139.237 263.664 140.517 265.134 141.551C263.664 142.584 262.382 143.864 261.349 145.334C260.315 143.864 259.036 142.584 257.566 141.551C259.036 140.517 260.315 139.237 261.349 137.766Z" fill="white" stroke="white" stroke-width="0.547594"/>
<path d="M218.959 268.531L220.944 244.681L226.227 245.121L224.241 268.97L218.959 268.531Z" fill="white" stroke="white" stroke-width="0.547594"/>
<path d="M221.275 239.432L221.605 234.132L226.896 234.464L226.563 239.763L221.275 239.432Z" fill="white" stroke="white" stroke-width="0.547594"/>
<path d="M213.65 130.95V138.901H205.701V144.2H213.65V152.15H218.95V144.2H226.9V138.901H218.95V130.95H213.65Z" fill="white" stroke="white" stroke-width="0.547594"/>
<line x1="96.9949" y1="40.6735" x2="36.1826" y2="71.7409" stroke="#FDFDFA" stroke-width="3"/>
<line x1="108.387" y1="47.572" x2="75.3867" y2="127.572" stroke="#FDFDFA" stroke-width="3"/>
<line x1="30.1659" y1="88.0562" x2="64.1659" y2="130.056" stroke="#FDFDFA" stroke-width="3"/>
<circle cx="115.5" cy="29.5" r="20" fill="#381B85" stroke="#FFD700" stroke-width="5"/>
<circle cx="23" cy="77" r="12.5" fill="#381B85" stroke="#FFD700" stroke-width="5"/>
<circle cx="70.5" cy="137.5" r="10" fill="#381B85" stroke="#FFD700" stroke-width="5"/>
</svg>
